<svg width="27" height="28" viewBox="0 0 27 28" fill="none" xmlns="http://www.w3.org/2000/svg">
<path d="M1.82478 17.6508L3.71715 19.612L2.70338 20.6977L7.02879 25.1804L8.07634 24.1298L10.0025 26.126L8.98873 27.2116C8.47059 27.7486 7.82854 28.0113 7.06258 27.9996C6.29662 27.988 5.65457 27.7136 5.13642 27.1766L0.77722 22.6589C0.259073 22.1219 -1.3113e-06 21.4623 -1.3113e-06 20.6802C-1.3113e-06 19.898 0.259073 19.2384 0.77722 18.7014L1.82478 17.6508ZM18.0451 0.805492C18.5632 0.268497 19.1996 0 19.9543 0C20.709 0 21.3454 0.268497 21.8636 0.805492L26.2228 5.32326C26.7409 5.86025 27 6.51982 27 7.30197C27 8.08411 26.7409 8.74368 26.2228 9.28068L25.209 10.3313L23.2829 8.3351L24.3304 7.28446L19.9712 2.76669L18.9574 3.85236L17.0313 1.85613L18.0451 0.805492ZM4.62953 12.5727L2.70338 14.5689L12.9424 25.1804L14.8686 23.1842L4.62953 12.5727ZM14.0914 2.76669L12.1652 4.79793L22.3705 15.3744L24.3304 13.3782L14.0914 2.76669ZM14.2941 10.9617L10.577 14.779L12.7397 17.0204L16.423 13.1681L14.2941 10.9617ZM12.1652 0.805492C12.6834 0.268497 13.3254 0 14.0914 0C14.8573 0 15.4994 0.268497 16.0175 0.805492L26.2228 11.382C26.7409 11.919 27 12.5844 27 13.3782C27 14.172 26.7409 14.8374 26.2228 15.3744L24.2966 17.3706C23.7785 17.9076 23.1421 18.1761 22.3874 18.1761C21.6327 18.1761 20.9962 17.9076 20.4781 17.3706L18.3492 15.1643L14.632 19.0166L16.761 21.188C17.2791 21.725 17.5382 22.3904 17.5382 23.1842C17.5382 23.978 17.2791 24.6434 16.761 25.1804L14.8348 27.1766C14.3166 27.7136 13.6802 27.9821 12.9255 27.9821C12.1708 27.9821 11.5344 27.7136 11.0163 27.1766L0.77722 16.5651C0.259073 16.0281 -1.3113e-06 15.3686 -1.3113e-06 14.5864C-1.3113e-06 13.8043 0.259073 13.1447 0.77722 12.6077L2.70338 10.6115C3.22153 10.0745 3.86358 9.806 4.62953 9.806C5.39549 9.806 6.03755 10.0745 6.55569 10.6115L8.65081 12.8178L12.368 8.96548L10.239 6.75913C9.7209 6.22214 9.46183 5.56257 9.46183 4.78042C9.46183 3.99828 9.7209 3.33871 10.239 2.80171L12.1652 0.805492Z" fill="#D6AB70"/>
</svg>
