<svg width="21" height="27" viewBox="0 0 21 27" fill="none" xmlns="http://www.w3.org/2000/svg">
<path d="M9.12188 18.2925L16.5375 10.665L14.6672 8.74125L9.12188 14.445L6.36562 11.61L4.49531 13.5338L9.12188 18.2925ZM10.5 27C7.45937 26.2125 4.94922 24.4181 2.96953 21.6169C0.989844 18.8156 0 15.705 0 12.285V4.05L10.5 0L21 4.05V12.285C21 15.705 20.0102 18.8156 18.0305 21.6169C16.0508 24.4181 13.5406 26.2125 10.5 27ZM10.5 24.165C12.775 23.4225 14.6562 21.9375 16.1438 19.71C17.6313 17.4825 18.375 15.0075 18.375 12.285V5.90625L10.5 2.86875L2.625 5.90625V12.285C2.625 15.0075 3.36875 17.4825 4.85625 19.71C6.34375 21.9375 8.225 23.4225 10.5 24.165Z" fill="#D6AB70"/>
</svg>
